<?xml version="1.0" encoding="UTF-8" standalone="no"?>
<svg
   xmlns:dc="http://purl.org/dc/elements/1.1/"
   xmlns:cc="http://creativecommons.org/ns#"
   xmlns:rdf="http://www.w3.org/1999/02/22-rdf-syntax-ns#"
   xmlns:svg="http://www.w3.org/2000/svg"
   xmlns="http://www.w3.org/2000/svg"
   viewBox="0 0 1000 666.66669"
   height="666.66669"
   width="1000"
   xml:space="preserve"
   id="svg2"
   version="1.1"><metadata
     id="metadata8"><rdf:RDF><cc:Work
         rdf:about=""><dc:format>image/svg+xml</dc:format><dc:type
           rdf:resource="http://purl.org/dc/dcmitype/StillImage" /></cc:Work></rdf:RDF></metadata><defs
     id="defs6"><clipPath
       id="clipPath18"
       clipPathUnits="userSpaceOnUse"><path
         id="path16"
         d="M 0,500 H 750 V 0 H 0 Z" /></clipPath><clipPath
       id="clipPath38"
       clipPathUnits="userSpaceOnUse"><path
         id="path36"
         d="M 0,500 H 750 V 0 H 0 Z" /></clipPath><clipPath
       id="clipPath236"
       clipPathUnits="userSpaceOnUse"><path
         id="path234"
         d="M 67.116,60.583 H 426.634 V 293.24 H 67.116 Z" /></clipPath></defs><g
     transform="matrix(1.3333333,0,0,-1.3333333,0,666.66667)"
     id="g10"><g
       id="g12"><g
         clip-path="url(#clipPath18)"
         id="g14"><g
           transform="translate(573.5894,335.9529)"
           id="g20"><path
             id="path22"
             style="fill:#f0efff;fill-opacity:1;fill-rule:nonzero;stroke:none"
             d="m 0,0 c 0,-34.258 -27.771,-62.029 -62.029,-62.029 -34.257,0 -62.028,27.771 -62.028,62.029 0,34.257 27.771,62.028 62.028,62.028 C -27.771,62.028 0,34.257 0,0" /></g><g
           transform="translate(614.0967,60.6462)"
           id="g24"><path
             id="path26"
             style="fill:#f0efff;fill-opacity:1;fill-rule:nonzero;stroke:none"
             d="m 0,0 c 13.139,10.051 24.729,21.793 33.368,35.895 17.552,28.644 19.607,68.996 -2.923,93.916 -25.026,27.68 -68.013,26.933 -105.147,23.248 -37.133,-3.686 -79.412,-6.575 -106.739,18.837 -22.282,20.718 -27.034,53.758 -29.315,84.099 -2.281,30.34 -4.216,62.964 -23.142,86.787 -25.474,32.067 -76.734,35.938 -111.239,13.878 -34.505,-22.059 -52.51,-64.368 -52.919,-105.32 -0.174,-17.525 0.884,-38.596 -13.589,-48.478 -11.536,-7.877 -27.382,-4.007 -39.776,2.436 -12.395,6.442 -24.083,15.324 -37.926,17.19 -18.429,2.485 -36.791,-8.692 -47.021,-24.221 -10.229,-15.529 -13.522,-34.649 -14.086,-53.236 C -552.056,92.278 -531.965,39.622 -497.255,0 Z" /></g></g></g><g
       transform="translate(67.5142,61.2917)"
       id="g28"><path
         id="path30"
         style="fill:none;stroke:#d3c6fc;stroke-width:1.04799998;stroke-linecap:butt;stroke-linejoin:miter;stroke-miterlimit:10;stroke-dasharray:none;stroke-opacity:1"
         d="M 0,0 H 582.575" /></g><g
       id="g32"><g
         clip-path="url(#clipPath38)"
         id="g34"><g
           transform="translate(511.7081,67.4128)"
           id="g40"><path
             id="path42"
             style="fill:#8f9af8;fill-opacity:1;fill-rule:nonzero;stroke:none"
             d="m 0,0 h -170.677 c -6.301,0 -11.409,-5.108 -11.409,-11.409 H 0 Z" /></g><g
           transform="translate(567.0513,143.9138)"
           id="g44"><path
             id="path46"
             style="fill:#b8c3ff;fill-opacity:1;fill-rule:nonzero;stroke:none"
             d="m 0,0 h -118.137 c -3.279,0 -6.24,-1.956 -7.528,-4.971 l -32.58,-76.332 c -1.336,-3.13 0.96,-6.607 4.364,-6.607 h 122.029 c 3.279,0 6.241,1.956 7.528,4.971 L 6.729,-10.188 C 8.788,-5.361 5.248,0 0,0" /></g><g
           transform="translate(505.8814,98.2868)"
           id="g48"><path
             id="path50"
             style="fill:#ffffff;fill-opacity:1;fill-rule:nonzero;stroke:none"
             d="m 0,0 c -1.799,-7.33 -9.201,-13.272 -16.531,-13.272 -7.33,0 -11.813,5.942 -10.013,13.272 1.799,7.33 9.2,13.271 16.53,13.271 C -2.684,13.271 1.8,7.33 0,0" /></g><g
           transform="translate(329.3023,50.1863)"
           id="g52"><path
             id="path54"
             style="fill:none;stroke:#d3c6fc;stroke-width:1.04799998;stroke-linecap:butt;stroke-linejoin:miter;stroke-miterlimit:10;stroke-dasharray:none;stroke-opacity:1"
             d="M 0,0 H 207.332" /></g><g
           transform="translate(417.8428,44.2839)"
           id="g56"><path
             id="path58"
             style="fill:none;stroke:#d3c6fc;stroke-width:1.04799998;stroke-linecap:butt;stroke-linejoin:miter;stroke-miterlimit:10;stroke-dasharray:none;stroke-opacity:1"
             d="M 0,0 H 109.938" /></g><g
           transform="translate(612.8116,329.3386)"
           id="g60"><path
             id="path62"
             style="fill:#ffffff;fill-opacity:1;fill-rule:nonzero;stroke:none"
             d="m 0,0 h -270.533 c -12.225,0 -22.135,-9.91 -22.135,-22.135 v -115.099 c 0,-12.225 9.91,-22.135 22.135,-22.135 h 104.07 l 18.64,-18.64 18.64,18.64 H 0 c 12.225,0 22.135,9.91 22.135,22.135 V -22.135 C 22.135,-9.91 12.225,0 0,0" /></g><g
           transform="translate(612.8116,329.3386)"
           id="g64"><path
             id="path66"
             style="fill:none;stroke:#bbabf8;stroke-width:1.04799998;stroke-linecap:butt;stroke-linejoin:miter;stroke-miterlimit:10;stroke-dasharray:none;stroke-opacity:1"
             d="m 0,0 h -270.533 c -12.225,0 -22.135,-9.91 -22.135,-22.135 v -115.099 c 0,-12.225 9.91,-22.135 22.135,-22.135 h 104.07 l 18.64,-18.64 18.64,18.64 H 0 c 12.225,0 22.135,9.91 22.135,22.135 V -22.135 C 22.135,-9.91 12.225,0 0,0 Z" /></g><g
           transform="translate(393.8633,283.0125)"
           id="g68"><path
             id="path70"
             style="fill:#dae0ff;fill-opacity:1;fill-rule:nonzero;stroke:none"
             d="m 0,0 c 0,-12.769 -10.35,-23.118 -23.118,-23.118 -12.768,0 -23.118,10.349 -23.118,23.118 0,12.768 10.35,23.118 23.118,23.118 C -10.35,23.118 0,12.768 0,0" /></g><g
           transform="translate(418.9283,304.0115)"
           id="g72"><path
             id="path74"
             style="fill:#faaf3b;fill-opacity:1;fill-rule:nonzero;stroke:none"
             d="m 0,0 4.243,-12.724 13.412,0.104 -10.79,-7.968 4.243,-12.724 -10.911,7.8 -10.79,-7.967 4.046,12.788 -10.911,7.799 13.412,0.104 z" /></g><g
           transform="translate(461.648,304.0115)"
           id="g76"><path
             id="path78"
             style="fill:#faaf3b;fill-opacity:1;fill-rule:nonzero;stroke:none"
             d="m 0,0 4.243,-12.724 13.412,0.104 -10.79,-7.968 4.243,-12.724 -10.911,7.8 -10.79,-7.967 4.046,12.788 -10.911,7.799 13.412,0.104 z" /></g><g
           transform="translate(504.3677,304.0115)"
           id="g80"><path
             id="path82"
             style="fill:#faaf3b;fill-opacity:1;fill-rule:nonzero;stroke:none"
             d="m 0,0 4.243,-12.724 13.412,0.104 -10.79,-7.968 4.243,-12.724 -10.911,7.8 -10.79,-7.967 4.046,12.788 -10.911,7.799 13.412,0.104 z" /></g><g
           transform="translate(547.0875,304.0115)"
           id="g84"><path
             id="path86"
             style="fill:#e8ecff;fill-opacity:1;fill-rule:nonzero;stroke:none"
             d="m 0,0 4.243,-12.724 13.412,0.104 -10.789,-7.968 4.242,-12.724 -10.911,7.8 -10.79,-7.967 4.046,12.788 -10.911,7.799 13.412,0.104 z" /></g><g
           transform="translate(589.8077,304.0115)"
           id="g88"><path
             id="path90"
             style="fill:#e8ecff;fill-opacity:1;fill-rule:nonzero;stroke:none"
             d="m 0,0 4.243,-12.724 13.412,0.104 -10.79,-7.968 4.243,-12.724 -10.911,7.8 -10.79,-7.967 4.046,12.788 -10.911,7.799 13.412,0.104 z" /></g><path
           id="path92"
           style="fill:#bbabf8;fill-opacity:1;fill-rule:nonzero;stroke:none"
           d="m 366.822,249.577 h -20.419 v -5.456 h 20.419 z" /><path
           id="path94"
           style="fill:#bbabf8;fill-opacity:1;fill-rule:nonzero;stroke:none"
           d="m 371.863,244.121 h 30.614 v 5.456 h -30.614 z" /><path
           id="path96"
           style="fill:#e6dffc;fill-opacity:1;fill-rule:nonzero;stroke:none"
           d="m 390.443,233.368 h -44.041 v -5.456 h 44.041 z" /><path
           id="path98"
           style="fill:#e6dffc;fill-opacity:1;fill-rule:nonzero;stroke:none"
           d="M 511.432,233.368 H 408.389 v -5.456 h 103.043 z" /><path
           id="path100"
           style="fill:#e6dffc;fill-opacity:1;fill-rule:nonzero;stroke:none"
           d="m 529.378,227.912 h 79.309 v 5.456 h -79.309 z" /><path
           id="path102"
           style="fill:#e6dffc;fill-opacity:1;fill-rule:nonzero;stroke:none"
           d="m 444.859,216.001 h -98.457 v -5.456 h 98.457 z" /><path
           id="path104"
           style="fill:#e6dffc;fill-opacity:1;fill-rule:nonzero;stroke:none"
           d="m 559.481,210.545 h 49.206 v 5.456 h -49.206 z" /><path
           id="path106"
           style="fill:#e6dffc;fill-opacity:1;fill-rule:nonzero;stroke:none"
           d="m 547.903,216.001 h -86.255 v -5.456 h 86.255 z" /><path
           id="path108"
           style="fill:#e6dffc;fill-opacity:1;fill-rule:nonzero;stroke:none"
           d="M 472.067,198.634 H 346.402 v -5.456 h 125.665 z" /><g
           transform="translate(667.1885,416.8699)"
           id="g110"><path
             id="path112"
             style="fill:#ffffff;fill-opacity:1;fill-rule:nonzero;stroke:none"
             d="m 0,0 h -176.582 c -7.979,0 -14.447,-6.469 -14.447,-14.447 v -35.335 c 0,-7.979 6.468,-14.447 14.447,-14.447 H 0 c 7.979,0 14.447,6.468 14.447,14.447 v 35.335 C 14.447,-6.469 7.979,0 0,0" /></g><g
           transform="translate(667.1885,416.8699)"
           id="g114"><path
             id="path116"
             style="fill:none;stroke:#bbabf8;stroke-width:1.04799998;stroke-linecap:butt;stroke-linejoin:miter;stroke-miterlimit:10;stroke-dasharray:none;stroke-opacity:1"
             d="m 0,0 h -176.582 c -7.979,0 -14.447,-6.469 -14.447,-14.447 v -35.335 c 0,-7.979 6.468,-14.447 14.447,-14.447 H 0 c 7.979,0 14.447,6.468 14.447,14.447 v 35.335 C 14.447,-6.469 7.979,0 0,0 Z" /></g><g
           transform="translate(544.0733,395.6814)"
           id="g118"><path
             id="path120"
             style="fill:#faaf3b;fill-opacity:1;fill-rule:nonzero;stroke:none"
             d="m 0,0 2.77,-8.306 8.754,0.069 -7.043,-5.201 2.77,-8.305 -7.122,5.091 -7.043,-5.201 2.641,8.347 -7.122,5.092 8.754,0.067 z" /></g><g
           transform="translate(571.9576,395.6814)"
           id="g122"><path
             id="path124"
             style="fill:#faaf3b;fill-opacity:1;fill-rule:nonzero;stroke:none"
             d="m 0,0 2.77,-8.306 8.754,0.069 -7.043,-5.201 2.769,-8.305 -7.122,5.091 -7.043,-5.201 2.642,8.347 -7.123,5.092 8.755,0.067 z" /></g><g
           transform="translate(599.8414,395.6814)"
           id="g126"><path
             id="path128"
             style="fill:#faaf3b;fill-opacity:1;fill-rule:nonzero;stroke:none"
             d="m 0,0 2.77,-8.306 8.754,0.069 -7.043,-5.201 2.77,-8.305 -7.123,5.091 -7.042,-5.201 2.641,8.347 -7.123,5.092 8.755,0.067 z" /></g><g
           transform="translate(627.7256,395.6814)"
           id="g130"><path
             id="path132"
             style="fill:#faaf3b;fill-opacity:1;fill-rule:nonzero;stroke:none"
             d="m 0,0 2.77,-8.306 8.753,0.069 -7.043,-5.201 2.77,-8.305 -7.122,5.091 -7.042,-5.201 2.641,8.347 -7.123,5.092 8.754,0.067 z" /></g><g
           transform="translate(655.6094,395.6814)"
           id="g134"><path
             id="path136"
             style="fill:#e8ecff;fill-opacity:1;fill-rule:nonzero;stroke:none"
             d="m 0,0 2.77,-8.306 8.753,0.069 -7.042,-5.201 2.77,-8.305 -7.122,5.091 -7.043,-5.201 2.641,8.347 -7.123,5.092 8.755,0.067 z" /></g><g
           transform="translate(520.9439,387.6023)"
           id="g138"><path
             id="path140"
             style="fill:#dae0ff;fill-opacity:1;fill-rule:nonzero;stroke:none"
             d="m 0,0 c 0,-7.116 -5.768,-12.885 -12.884,-12.885 -7.116,0 -12.884,5.769 -12.884,12.885 0,7.115 5.768,12.884 12.884,12.884 C -5.768,12.884 0,7.115 0,0" /></g><path
           id="path142"
           style="fill:#bbabf8;fill-opacity:1;fill-rule:nonzero;stroke:none"
           d="m 503.918,372.065 h -11.38 v -3.041 h 11.38 z" /><path
           id="path144"
           style="fill:#bbabf8;fill-opacity:1;fill-rule:nonzero;stroke:none"
           d="m 506.727,369.024 h 17.062 v 3.041 h -17.062 z" /><g
           transform="translate(213.2891,358.1121)"
           id="g146"><path
             id="path148"
             style="fill:#ffffff;fill-opacity:1;fill-rule:nonzero;stroke:none"
             d="m 0,0 h -121.248 c -5.479,0 -9.92,-4.441 -9.92,-9.92 v -24.262 c 0,-5.478 4.441,-9.921 9.92,-9.921 H 0 c 5.479,0 9.92,4.443 9.92,9.921 V -9.92 C 9.92,-4.441 5.479,0 0,0" /></g><g
           transform="translate(213.2891,358.1121)"
           id="g150"><path
             id="path152"
             style="fill:none;stroke:#bbabf8;stroke-width:1.04799998;stroke-linecap:butt;stroke-linejoin:miter;stroke-miterlimit:10;stroke-dasharray:none;stroke-opacity:1"
             d="m 0,0 h -121.248 c -5.479,0 -9.92,-4.441 -9.92,-9.92 v -24.262 c 0,-5.478 4.441,-9.921 9.92,-9.921 H 0 c 5.479,0 9.92,4.443 9.92,9.921 V -9.92 C 9.92,-4.441 5.479,0 0,0 Z" /></g><g
           transform="translate(128.754,343.5632)"
           id="g154"><path
             id="path156"
             style="fill:#faaf3b;fill-opacity:1;fill-rule:nonzero;stroke:none"
             d="m 0,0 1.901,-5.702 6.012,0.046 -4.836,-3.571 1.902,-5.703 -4.891,3.496 -4.836,-3.57 1.814,5.731 -4.891,3.496 6.012,0.046 z" /></g><g
           transform="translate(147.9,343.5632)"
           id="g158"><path
             id="path160"
             style="fill:#faaf3b;fill-opacity:1;fill-rule:nonzero;stroke:none"
             d="m 0,0 1.902,-5.702 6.011,0.046 -4.836,-3.571 1.902,-5.703 -4.891,3.496 -4.836,-3.57 1.814,5.731 -4.89,3.496 6.011,0.046 z" /></g><g
           transform="translate(167.0464,343.5632)"
           id="g162"><path
             id="path164"
             style="fill:#faaf3b;fill-opacity:1;fill-rule:nonzero;stroke:none"
             d="m 0,0 1.901,-5.702 6.012,0.046 -4.836,-3.571 1.902,-5.703 -4.891,3.496 -4.836,-3.57 1.813,5.731 -4.89,3.496 6.012,0.046 z" /></g><g
           transform="translate(186.1924,343.5632)"
           id="g166"><path
             id="path168"
             style="fill:#faaf3b;fill-opacity:1;fill-rule:nonzero;stroke:none"
             d="m 0,0 1.902,-5.702 6.011,0.046 -4.836,-3.571 1.902,-5.703 -4.891,3.496 -4.836,-3.57 1.814,5.731 -4.89,3.496 6.011,0.046 z" /></g><g
           transform="translate(205.3389,343.5632)"
           id="g170"><path
             id="path172"
             style="fill:#e8ecff;fill-opacity:1;fill-rule:nonzero;stroke:none"
             d="m 0,0 1.901,-5.702 6.012,0.046 -4.836,-3.571 1.902,-5.703 -4.891,3.496 -4.836,-3.57 1.813,5.731 -4.89,3.496 6.012,0.046 z" /></g><g
           transform="translate(112.8721,338.0164)"
           id="g174"><path
             id="path176"
             style="fill:#dae0ff;fill-opacity:1;fill-rule:nonzero;stroke:none"
             d="m 0,0 c 0,-4.887 -3.96,-8.848 -8.847,-8.848 -4.885,0 -8.846,3.961 -8.846,8.848 0,4.886 3.961,8.847 8.846,8.847 C -3.96,8.847 0,4.886 0,0" /></g><path
           id="path178"
           style="fill:#bbabf8;fill-opacity:1;fill-rule:nonzero;stroke:none"
           d="m 101.181,327.347 h -7.814 v -2.088 h 7.814 z" /><path
           id="path180"
           style="fill:#bbabf8;fill-opacity:1;fill-rule:nonzero;stroke:none"
           d="m 103.11,325.26 h 11.715 v 2.088 H 103.11 Z" /><g
           transform="translate(650.0333,123.1179)"
           id="g182"><path
             id="path184"
             style="fill:#ff7aa9;fill-opacity:1;fill-rule:nonzero;stroke:none"
             d="m 0,0 c 0,-14.869 -12.053,-26.923 -26.922,-26.923 -14.869,0 -26.922,12.054 -26.922,26.923 0,14.868 12.053,26.922 26.922,26.922 C -12.053,26.922 0,14.868 0,0" /></g><g
           transform="translate(631.1866,133.2712)"
           id="g186"><path
             id="path188"
             style="fill:#ffffff;fill-opacity:1;fill-rule:nonzero;stroke:none"
             d="m 0,0 c -4.475,0 -8.075,-3.627 -8.075,-8.101 0,4.474 -3.601,8.101 -8.075,8.101 -4.474,0 -8.101,-3.627 -8.101,-8.101 0,-10.093 16.176,-18.553 16.176,-18.553 0,0 16.177,8.46 16.177,18.553 C 8.102,-3.627 4.475,0 0,0" /></g><g
           transform="translate(145.6929,231.53)"
           id="g190"><path
             id="path192"
             style="fill:#ff7aa9;fill-opacity:1;fill-rule:nonzero;stroke:none"
             d="m 0,0 c 0,-14.869 -12.054,-26.922 -26.922,-26.922 -14.869,0 -26.922,12.053 -26.922,26.922 0,14.868 12.053,26.922 26.922,26.922 C -12.054,26.922 0,14.868 0,0" /></g><g
           transform="translate(126.8458,241.6833)"
           id="g194"><path
             id="path196"
             style="fill:#ffffff;fill-opacity:1;fill-rule:nonzero;stroke:none"
             d="m 0,0 c -4.474,0 -8.075,-3.627 -8.075,-8.101 0,4.474 -3.601,8.101 -8.075,8.101 -4.475,0 -8.101,-3.627 -8.101,-8.101 0,-10.093 16.176,-18.553 16.176,-18.553 0,0 16.177,8.46 16.177,18.553 C 8.102,-3.627 4.474,0 0,0" /></g><g
           transform="translate(265.6592,420.7507)"
           id="g198"><path
             id="path200"
             style="fill:#bbabf8;fill-opacity:1;fill-rule:nonzero;stroke:none"
             d="M 0,0 6.534,-20.108 H 27.678 L 10.572,-32.537 17.106,-52.646 0,-40.218 l -17.106,-12.428 6.534,20.109 -17.106,12.429 h 21.144 z" /></g><g
           transform="translate(297.9273,372.5564)"
           id="g202"><path
             id="path204"
             style="fill:#bbabf8;fill-opacity:1;fill-rule:nonzero;stroke:none"
             d="M 0,0 4.99,-15.356 H 21.137 L 8.074,-24.848 13.063,-40.205 0,-30.714 l -13.063,-9.491 4.989,15.357 -13.063,9.492 H -4.99 Z" /></g><g
           transform="translate(276.8316,325.9744)"
           id="g206"><path
             id="path208"
             style="fill:#bbabf8;fill-opacity:1;fill-rule:nonzero;stroke:none"
             d="m 0,0 2.901,-8.929 h 9.39 l -7.596,-5.519 2.901,-8.929 -7.596,5.519 -7.596,-5.519 2.902,8.929 -7.597,5.519 h 9.39 z" /></g><g
           transform="translate(686.4464,244.904)"
           id="g210"><path
             id="path212"
             style="fill:#bbabf8;fill-opacity:1;fill-rule:nonzero;stroke:none"
             d="m 0,0 c 0,-19.213 -15.575,-34.788 -34.788,-34.788 -19.214,0 -34.789,15.575 -34.789,34.788 0,19.213 15.575,34.788 34.789,34.788 C -15.575,34.788 0,19.213 0,0" /></g><g
           transform="translate(634.004,262.0388)"
           id="g214"><path
             id="path216"
             style="fill:#ffffff;fill-opacity:1;fill-rule:nonzero;stroke:none"
             d="M 0,0 V -12.044 L 24.404,-17.654 0,-23.264 v -12.044 l 45.173,17.654 z" /></g><g
           transform="translate(445.7462,404.8992)"
           id="g218"><path
             id="path220"
             style="fill:#bbabf8;fill-opacity:1;fill-rule:nonzero;stroke:none"
             d="m 0,0 c 0.009,-28.107 -22.844,-50.98 -50.746,-50.922 -28.341,0.06 -48.019,21.735 -50.674,44.602 -1.758,15.142 2.297,28.611 12.262,40.03 10.048,11.514 23.025,17.419 38.322,17.392 C -23.084,51.051 0.166,28.559 0,0" /></g><g
           transform="translate(401.9791,385.8484)"
           id="g222"><path
             id="path224"
             style="fill:#fdfdfe;fill-opacity:1;fill-rule:nonzero;stroke:none"
             d="m 0,0 c -4.491,0 -8.981,-0.006 -13.472,0.004 -1.615,0.003 -2.207,0.521 -2.195,2.137 0.057,7.004 -0.32,14.018 0.197,21.009 0.332,4.496 2.109,8.523 4.887,12.088 1.881,2.413 3.847,4.752 6.042,6.887 0.709,0.689 1.067,1.471 1.051,2.472 -0.018,1.199 0.098,2.4 0.07,3.598 -0.036,1.498 0.456,2.742 1.862,3.307 1.465,0.59 2.899,0.288 4.087,-0.822 1.157,-1.081 1.606,-2.53 1.964,-4 C 5.413,42.903 4.701,39.317 3.146,35.842 2.626,34.678 2.153,33.49 1.571,32.358 1.19,31.617 1.485,31.356 2.145,31.253 c 0.34,-0.054 0.694,-0.03 1.043,-0.029 4.025,0.007 8.052,0.02 12.078,0.025 2.189,0.003 3.687,-1.045 4.207,-2.925 0.582,-2.105 -0.259,-4.518 -2.029,-5.464 -0.796,-0.424 -0.772,-0.605 -0.077,-1.092 1.471,-1.033 2.452,-2.342 2.152,-4.297 -0.227,-1.476 -0.958,-2.495 -2.412,-2.96 -0.274,-0.088 -0.696,-0.063 -0.75,-0.424 C 16.301,13.712 16.741,13.651 16.97,13.48 18.903,12.039 19.162,8.194 16.324,7.02 15.778,6.794 15.536,6.66 16.113,6.106 17.361,4.909 17.373,3.38 16.79,1.912 16.224,0.488 14.947,0.052 13.472,0.057 8.981,0.072 4.491,0.062 0,0.062 Z" /></g><g
           transform="translate(380.8839,381.8425)"
           id="g226"><path
             id="path228"
             style="fill:#fdfdfe;fill-opacity:1;fill-rule:nonzero;stroke:none"
             d="m 0,0 c -3.713,-0.011 -7.426,-0.017 -11.139,-0.037 -1.106,-0.006 -1.619,0.612 -1.735,1.62 -0.062,0.535 -0.028,1.082 -0.028,1.623 0.002,7.775 0.002,15.552 0.012,23.327 0.003,1.918 0.484,2.385 2.417,2.388 3.327,0.006 6.654,0.012 9.981,-0.002 C 0.842,28.913 1.525,28.332 1.527,27.061 1.535,18.9 1.508,10.739 1.492,2.578 1.492,2.541 1.47,2.504 1.458,2.467 1.25,2.401 1.274,2.327 1.45,2.246 1.514,1.367 1.489,0.53 0.476,0.152 0.446,0.396 0.362,0.667 0.076,0.582 -0.252,0.484 0.045,0.197 0,0" /></g></g></g><g
       id="g230"><g
         clip-path="url(#clipPath236)"
         id="g232"><g
           transform="translate(262.5401,257.0203)"
           id="g238"><path
             id="path240"
             style="fill:#452828;fill-opacity:1;fill-rule:nonzero;stroke:none"
             d="m 0,0 c 1.421,-7.155 1.029,-14.531 1.576,-21.805 0.547,-7.274 2.209,-14.827 6.99,-20.336 4.054,-4.671 10.126,-7.612 13.018,-13.079 2.199,-4.155 2.16,-9.272 0.523,-13.679 -1.638,-4.408 -4.747,-8.152 -8.354,-11.166 -12.42,-10.379 -31.016,-12.049 -45.72,-5.284 -14.703,6.766 -25.274,21.183 -28.749,36.991 -3.475,15.807 -0.214,32.722 7.581,46.907 4.403,8.013 10.46,15.45 18.627,19.559 6.751,3.399 16.9,4.681 23.723,0.572 C -4.936,15.157 -1.25,6.291 0,0" /></g><g
           transform="translate(379.5806,94.4665)"
           id="g242"><path
             id="path244"
             style="fill:#915046;fill-opacity:1;fill-rule:nonzero;stroke:none"
             d="m 0,0 c 0,0 -2.64,-5.681 -9.357,-2.291 l -4.396,-8.304 10.96,-5.801 7.959,15.035 -3.147,14.811 c 0,0 -2.975,-1.173 -2.894,-4.354 C -0.793,5.913 0,0 0,0" /></g><g
           transform="translate(389.5972,75.0486)"
           id="g246"><path
             id="path248"
             style="fill:#994f39;fill-opacity:1;fill-rule:nonzero;stroke:none"
             d="M 0,0 C 0.052,3.457 -1.808,6.691 -4.908,8.333 L -16.387,14.409 -18.758,9.93 Z" /></g><g
           transform="translate(392.8145,69.905)"
           id="g250"><path
             id="path252"
             style="fill:#ab6955;fill-opacity:1;fill-rule:nonzero;stroke:none"
             d="m 0,0 c 0.052,3.457 -1.808,6.691 -4.908,8.332 l -13.176,6.975 -2.371,-4.479 z" /></g><g
           transform="translate(377.3829,122.029)"
           id="g254"><path
             id="path256"
             style="fill:#faaf3b;fill-opacity:1;fill-rule:nonzero;stroke:none"
             d="m 0,0 3.827,-11.477 12.098,0.094 -9.733,-7.186 3.828,-11.477 -9.842,7.035 -9.732,-7.186 3.649,11.534 -9.842,7.035 12.098,0.094 z" /></g><g
           transform="translate(369.9888,92.2839)"
           id="g258"><path
             id="path260"
             style="fill:#b57a68;fill-opacity:1;fill-rule:nonzero;stroke:none"
             d="m 0,0 0.559,4.021 4.645,3.664 c 1.408,1.111 2.233,2.802 2.24,4.596 l 0.001,0.454 -14.17,-5.054 -6.176,-7.311 -3.985,-7.527 21.419,-11.337 1.454,2.748 C 8.859,-10.32 6.79,-3.594 1.363,-0.722 Z" /></g><g
           transform="translate(389.564,65.8269)"
           id="g262"><path
             id="path264"
             style="fill:#b57a68;fill-opacity:1;fill-rule:nonzero;stroke:none"
             d="m 0,0 c 0.052,3.457 -1.808,6.691 -4.908,8.332 l -13.175,6.975 -2.372,-4.48 z" /></g><g
           transform="translate(369.8023,92.6872)"
           id="g266"><path
             id="path268"
             style="fill:none;stroke:#a15545;stroke-width:1.86500001;stroke-linecap:round;stroke-linejoin:round;stroke-miterlimit:10;stroke-dasharray:none;stroke-opacity:1"
             d="M 0,0 C -1.344,-2.068 -3.063,-3.893 -5.048,-5.357" /></g><g
           transform="translate(293.2003,92.7634)"
           id="g270"><path
             id="path272"
             style="fill:#b57a68;fill-opacity:1;fill-rule:nonzero;stroke:none"
             d="m 0,0 65.22,-1.058 -0.254,-8.949 -77.61,-11.851 z" /></g><g
           transform="translate(232.8194,176.531)"
           id="g274"><path
             id="path276"
             style="fill:#383757;fill-opacity:1;fill-rule:nonzero;stroke:none"
             d="m 0,0 h 19.132 c 9.027,0 17.055,-5.738 19.975,-14.28 l 27.8,-81.301 c 0,0 -1.934,-15.042 -13.696,-16.423 -4.418,-0.518 -8.668,1.902 -10.741,5.837 L 0,-25.591 Z" /></g><g
           transform="translate(281.2964,94.0945)"
           id="g278"><path
             id="path280"
             style="fill:#383757;fill-opacity:1;fill-rule:nonzero;stroke:none"
             d="M 0,0 62.929,-2.12 42.21,-28.284 2.45,-30.661 c -5.258,-0.315 -9.289,4.599 -7.952,9.694 l 2.602,9.916 z" /></g><g
           transform="translate(293.2003,92.7634)"
           id="g282"><path
             id="path284"
             style="fill:none;stroke:#474463;stroke-width:1.86500001;stroke-linecap:round;stroke-linejoin:miter;stroke-miterlimit:10;stroke-dasharray:none;stroke-opacity:1"
             d="M 0,0 C -5.145,-3.11 -10.937,-7.891 -13.607,-13.276" /></g><g
           transform="translate(293.2003,92.7634)"
           id="g286"><path
             id="path288"
             style="fill:none;stroke:#474463;stroke-width:1.86500001;stroke-linecap:round;stroke-linejoin:miter;stroke-miterlimit:10;stroke-dasharray:none;stroke-opacity:1"
             d="M 0,0 C -6.667,-0.264 -14.891,-1.155 -19.762,-5.716" /></g><g
           transform="translate(247.0797,0.0368)"
           id="g290"><path
             id="path292"
             style="fill:#ffffff;fill-opacity:1;fill-rule:nonzero;stroke:none"
             d="m 0,0 c -10.243,-1.049 -20.904,-0.781 -31.151,0.201 -16.354,1.569 -30.795,9.303 -44.905,17.143 -2.038,1.132 -4.091,2.294 -6.144,3.476 7.438,11.774 16.906,23.918 27.792,31.621 h 54.36 L 17.568,4.273 C 12.116,1.72 5.766,0.591 0,0" /></g><g
           transform="translate(184.0826,55.0134)"
           id="g294"><path
             id="path296"
             style="fill:#474463;fill-opacity:1;fill-rule:nonzero;stroke:none"
             d="m 0,0 -15.785,108.832 7.926,12.831 H 64.449 L 84.324,68.124 c 0,0 -16.616,-51.509 -16.616,-70.616 l 18.295,-53.116 -21.6,-8.308 -16.633,51.039 -18.277,-50.678 -56.909,23.678 z" /></g><g
           transform="translate(168.2979,163.8454)"
           id="g298"><path
             id="path300"
             style="fill:#383757;fill-opacity:1;fill-rule:nonzero;stroke:none"
             d="m 0,0 8.026,12.994 h 10.351 l 3.049,-25.899 -9.982,-66.002 z" /></g><g
           transform="translate(245.1661,176.3171)"
           id="g302"><path
             id="path304"
             style="fill:#ffffff;fill-opacity:1;fill-rule:nonzero;stroke:none"
             d="M 0,0 V -61.246 L -51.302,0 Z" /></g><g
           transform="translate(213.7203,161.5867)"
           id="g306"><path
             id="path308"
             style="fill:#b57a68;fill-opacity:1;fill-rule:nonzero;stroke:none"
             d="m 0,0 c -3.604,0.857 -7.108,2.067 -10.495,3.555 l -9.799,11.698 h 51.74 V 6.265 C 24.196,-2.289 10.487,-2.497 0,0" /></g><g
           transform="translate(193.4263,176.8396)"
           id="g310"><path
             id="path312"
             style="fill:#615f7f;fill-opacity:1;fill-rule:nonzero;stroke:none"
             d="M 0,0 V -38.258 H 21.939 L 9.753,-63.982 53.321,-63.667 Z" /></g><g
           transform="translate(245.1661,176.8396)"
           id="g314"><path
             id="path316"
             style="fill:#615f7f;fill-opacity:1;fill-rule:nonzero;stroke:none"
             d="M 0,0 H 3.305 L 28.95,-38.258 H 8.696 L 30.555,-63.982 H 1.581 0.298 Z" /></g><g
           transform="translate(245.4034,112.9187)"
           id="g318"><path
             id="path320"
             style="fill:none;stroke:#383757;stroke-width:1.86500001;stroke-linecap:butt;stroke-linejoin:miter;stroke-miterlimit:10;stroke-dasharray:none;stroke-opacity:1"
             d="M 0,0 C -4.941,-23.335 -8.562,-46.96 -13.502,-70.295" /></g><g
           transform="translate(189.7237,176.8523)"
           id="g322"><path
             id="path324"
             style="fill:#474463;fill-opacity:1;fill-rule:nonzero;stroke:none"
             d="m 0,0 h -19.132 c -9.027,0 -17.055,-5.739 -19.975,-14.28 l -27.8,-81.301 c 0,0 0.317,-6.021 3.112,-11.163 4.439,-8.168 15.433,-10.253 19.807,-2.051 L 0,-25.591 Z" /></g><g
           transform="translate(216.3306,89.4851)"
           id="g326"><path
             id="path328"
             style="fill:#915046;fill-opacity:1;fill-rule:nonzero;stroke:none"
             d="m 0,0 5.251,-4.546 12.565,-2.878 -0.063,0.45 c -0.248,1.777 -1.292,3.342 -2.836,4.253 l -3.151,2.527 0.906,3.482 5.292,4.393 -6.412,5.545 L -2.14,4.214 Z" /></g><g
           transform="translate(228.5679,98.4206)"
           id="g330"><path
             id="path332"
             style="fill:#faaf3b;fill-opacity:1;fill-rule:nonzero;stroke:none"
             d="m 0,0 8.751,-8.353 10.649,5.743 -5.24,-10.905 8.752,-8.352 -11.99,1.613 -5.239,-10.904 -2.171,11.901 -11.99,1.613 10.648,5.743 z" /></g><g
           transform="translate(236.4605,93.991)"
           id="g334"><path
             id="path336"
             style="fill:#915046;fill-opacity:1;fill-rule:nonzero;stroke:none"
             d="m 0,0 c 0,0 -2.698,4.211 -7.65,0.809 l -4.369,6.098 8.936,6.244 L 4.828,2.109 3.057,-8.031 c 0,0 -2.479,0.608 -2.756,3.135 C 0.024,-2.37 0,0 0,0" /></g><g
           transform="translate(216.8936,88.5349)"
           id="g338"><path
             id="path340"
             style="fill:#b57a68;fill-opacity:1;fill-rule:nonzero;stroke:none"
             d="m 0,0 -5.216,6.993 19.395,14.992 1.81,-2.527 c 3.575,-4.991 3.4,-9.484 0.323,-11.909 L 12.109,4.238 Z" /></g><g
           transform="translate(245.3926,104.0574)"
           id="g342"><path
             id="path344"
             style="fill:#b57a68;fill-opacity:1;fill-rule:nonzero;stroke:none"
             d="m 0,0 c 0.564,0.139 1.032,-0.432 0.803,-0.966 -0.92,-2.145 -2.791,-3.789 -5.133,-4.365 l -11.834,-2.909 -0.989,4.023 z" /></g><g
           transform="translate(243.7828,120.7908)"
           id="g346"><path
             id="path348"
             style="fill:#b57a68;fill-opacity:1;fill-rule:nonzero;stroke:none"
             d="M 0,0 C 0.558,0.449 1.378,0.057 1.4,-0.659 1.492,-3.535 0.26,-6.348 -2.056,-8.212 l -11.703,-9.422 -3.203,3.979 z" /></g><g
           transform="translate(246.2691,112.5437)"
           id="g350"><path
             id="path352"
             style="fill:#b57a68;fill-opacity:1;fill-rule:nonzero;stroke:none"
             d="M 0,0 C 0.641,0.319 1.357,-0.24 1.227,-0.944 0.699,-3.773 -1.107,-6.256 -3.769,-7.581 l -11.716,-5.833 -2.276,4.572 z" /></g><g
           transform="translate(143.3248,97.7243)"
           id="g354"><path
             id="path356"
             style="fill:#474463;fill-opacity:1;fill-rule:nonzero;stroke:none"
             d="M 0,0 64.186,0.374 44.208,-27.48 -5.533,-34.966 C -11.966,-35.934 -17.42,-30.294 -16.28,-23.89 -14.453,-13.624 -10.144,-0.836 0,0" /></g><g
           transform="translate(160.7535,97.7702)"
           id="g358"><path
             id="path360"
             style="fill:none;stroke:#383757;stroke-width:1.86500001;stroke-linecap:round;stroke-linejoin:miter;stroke-miterlimit:10;stroke-dasharray:none;stroke-opacity:1"
             d="M 0,0 -21.015,-0.428" /></g><g
           transform="translate(160.7569,97.8161)"
           id="g362"><path
             id="path364"
             style="fill:none;stroke:#383757;stroke-width:1.86500001;stroke-linecap:round;stroke-linejoin:miter;stroke-miterlimit:10;stroke-dasharray:none;stroke-opacity:1"
             d="M 0,0 -21.93,-5.842" /></g><g
           transform="translate(206.0474,228.0349)"
           id="g366"><path
             id="path368"
             style="fill:#b57a68;fill-opacity:1;fill-rule:nonzero;stroke:none"
             d="m 0,0 2.264,-56.457 c 0.091,-2.272 1.959,-4.066 4.233,-4.066 h 27.792 c 3.461,0 5.133,4.188 2.658,6.607 -5.329,5.21 -10.731,14.152 -10.731,28.995 v 23.788 z" /></g><g
           transform="translate(218.8726,227.4812)"
           id="g370"><path
             id="path372"
             style="fill:#915046;fill-opacity:1;fill-rule:nonzero;stroke:none"
             d="m 0,0 13.391,-0.579 v -23.788 c 0,-6.527 1.048,-11.906 2.671,-16.335 C 0.673,-35.469 -4.518,-14.85 0,0" /></g><g
           transform="translate(212.9068,206.8865)"
           id="g374"><path
             id="path376"
             style="fill:#b57a68;fill-opacity:1;fill-rule:nonzero;stroke:none"
             d="m 0,0 c -1.878,1.269 -3.716,2.808 -5.475,4.517 -8.923,8.671 -14.247,20.403 -15.498,32.783 -1.162,11.511 1.148,22.962 10.702,30.56 10.229,8.135 26.177,8.846 37.698,3.203 C 38.446,65.664 44.505,55.397 46.759,43.641 47.877,37.809 48.194,31.85 48.273,25.922 48.422,14.821 46.699,-6.503 33.939,-9.161 20.161,-11.999 10.107,-6.824 0,0" /></g><g
           transform="translate(255.6475,255.449)"
           id="g378"><path
             id="path380"
             style="fill:#452828;fill-opacity:1;fill-rule:nonzero;stroke:none"
             d="m 0,0 c 3.663,-5.235 4.71,-11.806 5.661,-18.124 2.283,8.102 2.286,16.833 0.009,24.937 -1.066,3.792 -2.664,7.515 -5.292,10.448 -2.628,2.932 -6.4,5.002 -10.338,4.935 -6.156,-0.103 -13.56,-8.585 -7.204,-13.709 1.942,-1.565 5.245,-1.244 7.547,-1.86 C -5.732,5.586 -2.32,3.316 0,0" /></g><g
           transform="translate(240.9029,250.7839)"
           id="g382"><path
             id="path384"
             style="fill:#452828;fill-opacity:1;fill-rule:nonzero;stroke:none"
             d="m 0,0 c -4.161,-3.774 -9.298,-6.272 -14.788,-7.433 -5.625,-1.188 -12.442,-0.859 -16.67,-5.361 -12.85,-13.683 -2.021,-30.118 4.527,-43.919 3.297,-6.947 6.711,-15.016 4.92,-22.847 -2.29,-10.019 -12.059,-14.781 -21.663,-14.821 -15.628,-0.064 -27.741,11.546 -30.861,26.475 -1.615,7.73 -0.506,15.442 2.494,22.675 2.761,6.657 7.208,12.535 9.42,19.433 3.541,11.037 -1.474,22.67 2.107,33.888 7.116,22.294 41.39,44.181 62.286,26.01 C 13.828,23.616 9.906,8.986 0,0" /></g><g
           transform="translate(210.2647,245.8708)"
           id="g386"><path
             id="path388"
             style="fill:#452828;fill-opacity:1;fill-rule:nonzero;stroke:none"
             d="m 0,0 c -2.811,-2.67 -4.646,-6.424 -5.046,-10.277 -0.456,-4.41 0.736,-8.81 2.926,-12.695 l 2.859,0.502 c 0.302,5.016 1.567,10.017 3.147,14.72 0.724,2.157 1.592,4.304 2.625,6.366 C 5.659,2.575 2.542,2.415 0,0" /></g><g
           transform="translate(248.0777,234.657)"
           id="g390"><path
             id="path392"
             style="fill:none;stroke:#915046;stroke-width:1.21599996;stroke-linecap:round;stroke-linejoin:miter;stroke-miterlimit:10;stroke-dasharray:none;stroke-opacity:1"
             d="m 0,0 c 0.828,-3.708 2.337,-7.262 4.429,-10.432 0.732,-1.109 1.576,-2.362 1.265,-3.654 -0.292,-1.216 -1.493,-1.953 -2.589,-2.557" /></g><g
           transform="translate(243.7784,210.5681)"
           id="g394"><path
             id="path396"
             style="fill:#ff7a7a;fill-opacity:1;fill-rule:nonzero;stroke:none"
             d="M 0,0 C 0.302,-1.722 1.942,-2.872 3.663,-2.57 5.384,-2.268 6.534,-0.628 6.232,1.093 5.93,2.814 4.29,3.965 2.569,3.662 0.848,3.36 -0.302,1.721 0,0" /></g><g
           transform="translate(251.7086,212.9021)"
           id="g398"><path
             id="path400"
             style="fill:none;stroke:#915046;stroke-width:1.21599996;stroke-linecap:round;stroke-linejoin:miter;stroke-miterlimit:10;stroke-dasharray:none;stroke-opacity:1"
             d="M 0,0 C -3.29,-1.958 -7.523,-2.237 -11.042,-0.729" /></g><g
           transform="translate(259.1944,244.8191)"
           id="g402"><path
             id="path404"
             style="fill:none;stroke:#452828;stroke-width:1.82299995;stroke-linecap:round;stroke-linejoin:miter;stroke-miterlimit:10;stroke-dasharray:none;stroke-opacity:1"
             d="M 0,0 C -2.838,1.587 -5.798,1.199 -8.016,-1.05" /></g><g
           transform="translate(237.0567,241.9392)"
           id="g406"><path
             id="path408"
             style="fill:none;stroke:#452828;stroke-width:1.82299995;stroke-linecap:round;stroke-linejoin:miter;stroke-miterlimit:10;stroke-dasharray:none;stroke-opacity:1"
             d="M 0,0 C -3.968,1.267 -8.2,0.571 -11.54,-1.896" /></g><g
           transform="translate(236.3463,233.1531)"
           id="g410"><path
             id="path412"
             style="fill:#452828;fill-opacity:1;fill-rule:nonzero;stroke:none"
             d="m 0,0 c 0.27,-1.536 -0.757,-2.999 -2.293,-3.269 -1.536,-0.269 -2.999,0.757 -3.269,2.293 -0.27,1.537 0.757,2.999 2.293,3.269 C -1.733,2.563 -0.27,1.536 0,0" /></g><g
           transform="translate(257.834,235.6277)"
           id="g414"><path
             id="path416"
             style="fill:#452828;fill-opacity:1;fill-rule:nonzero;stroke:none"
             d="m 0,0 c 0.27,-1.536 -0.757,-3 -2.293,-3.27 -1.536,-0.269 -2.999,0.757 -3.269,2.293 -0.27,1.537 0.757,3 2.293,3.27 C -1.733,2.563 -0.27,1.535 0,0" /></g><g
           transform="translate(207.4947,229.6658)"
           id="g418"><path
             id="path420"
             style="fill:#b57a68;fill-opacity:1;fill-rule:nonzero;stroke:none"
             d="m 0,0 c -1.928,1.64 -4.697,2.528 -7.045,1.584 -1.889,-0.76 -3.21,-2.605 -3.666,-4.59 -0.457,-1.983 -0.137,-4.082 0.545,-6 2.176,-6.113 8.268,-10.622 14.749,-10.916 1.341,-0.061 0.605,10.674 0.406,11.697 C 4.394,-5.16 2.367,-2.013 0,0" /></g><g
           transform="translate(210.192,212.614)"
           id="g422"><path
             id="path424"
             style="fill:#ffffff;fill-opacity:1;fill-rule:nonzero;stroke:none"
             d="m 0,0 c 0.266,-1.518 -0.749,-2.964 -2.267,-3.23 -1.517,-0.267 -2.964,0.748 -3.23,2.265 C -5.764,0.554 -4.749,2 -3.231,2.267 -1.713,2.532 -0.267,1.518 0,0" /></g><g
           transform="translate(200.9356,226.9099)"
           id="g426"><path
             id="path428"
             style="fill:none;stroke:#915046;stroke-width:1.21599996;stroke-linecap:round;stroke-linejoin:miter;stroke-miterlimit:10;stroke-dasharray:none;stroke-opacity:1"
             d="m 0,0 c 1.106,0.937 2.77,1.051 4.103,0.479 1.333,-0.571 2.348,-1.738 2.97,-3.048 0.622,-1.31 0.886,-2.76 1.04,-4.202 -0.712,0.672 -1.911,0.75 -2.704,0.175 -0.792,-0.576 -1.09,-1.74 -0.67,-2.626 0.419,-0.884 1.509,-1.392 2.457,-1.142" /></g></g></g></g></svg>